HIERARCHY
ROOT Hips
{
	OFFSET 0.000000 0.000000 0.000000
	CHANNELS 6 Xposition Yposition Zposition Zrotation Yrotation Xrotation 
	JOINT LHipJoint
	{
		OFFSET 0.000000 0.000000 0.000000
		CHANNELS 3 Zrotation Yrotation Xrotation
		JOINT LeftUpLeg
		{
			OFFSET 8.178360 -10.767780 5.035740
			CHANNELS 3 Zrotation Yrotation Xrotation
			JOINT LeftLeg
			{
				OFFSET 14.688660 -40.356780 0.000000
				CHANNELS 3 Zrotation Yrotation Xrotation
				JOINT LeftFoot
				{
					OFFSET 15.373200 -42.237540 0.000000
					CHANNELS 3 Zrotation Yrotation Xrotation
					JOINT LeftToeBase
					{
						OFFSET 0.945840 -2.598660 13.935300
						CHANNELS 3 Zrotation Yrotation Xrotation
						End Site
						{
							OFFSET 0.000000 0.000000 0.000000
						}
					}
				}
			}
		}
	}
	JOINT RHipJoint
	{
		OFFSET 0.000000 0.000000 0.000000
		CHANNELS 3 Zrotation Yrotation Xrotation
		JOINT RightUpLeg
		{
			OFFSET -7.833120 -10.767780 5.035740
			CHANNELS 3 Zrotation Yrotation Xrotation
			JOINT RightLeg
			{
				OFFSET -15.255180 -41.913300 0.000000
				CHANNELS 3 Zrotation Yrotation Xrotation
				JOINT RightFoot
				{
					OFFSET -15.409560 -42.337380 0.000000
					CHANNELS 3 Zrotation Yrotation Xrotation
					JOINT RightToeBase
					{
						OFFSET -0.988380 -2.715540 14.178900
						CHANNELS 3 Zrotation Yrotation Xrotation
						End Site
						{
							OFFSET 0.000000 0.000000 0.000000
						}
					}
				}
			}
		}
	}
	JOINT LowerBack
	{
		OFFSET 0.000000 0.000000 0.000000
		CHANNELS 3 Zrotation Yrotation Xrotation
		JOINT Spine
		{
			OFFSET 0.169620 12.213540 -1.160280
			CHANNELS 3 Zrotation Yrotation Xrotation
			JOINT Spine1
			{
				OFFSET 0.340320 12.293100 -0.256500
				CHANNELS 3 Zrotation Yrotation Xrotation
				JOINT Neck
				{
					OFFSET 0.000000 0.000000 0.000000
					CHANNELS 3 Zrotation Yrotation Xrotation
					JOINT Neck1
					{
						OFFSET -0.325020 10.477440 1.032120
						CHANNELS 3 Zrotation Yrotation Xrotation
						JOINT Head
						{
							OFFSET 0.624420 10.568160 -0.743820
							CHANNELS 3 Zrotation Yrotation Xrotation
							End Site
							{
								OFFSET 0.000000 0.000000 0.000000
							}
						}
					}
				}
				JOINT LeftShoulder
				{
					OFFSET 0.000000 0.000000 0.000000
					CHANNELS 3 Zrotation Yrotation Xrotation
					JOINT LeftArm
					{
						OFFSET 20.174460 7.205340 -1.867260
						CHANNELS 3 Zrotation Yrotation Xrotation
						JOINT LeftForeArm
						{
							OFFSET 29.898000 -0.000000 -0.000000
							CHANNELS 3 Zrotation Yrotation Xrotation
							JOINT LeftHand
							{
								OFFSET 20.901360 -0.000000 -0.000000
								CHANNELS 3 Zrotation Yrotation Xrotation
								JOINT LeftFingerBase
								{
									OFFSET 0.000000 0.000000 0.000000
									CHANNELS 3 Zrotation Yrotation Xrotation
									JOINT LeftHandIndex1
									{
										OFFSET 4.291560 -0.000000 -0.000000
										CHANNELS 3 Zrotation Yrotation Xrotation
										End Site
										{
											OFFSET 0.000000 0.000000 0.000000
										}
									}
								}
								JOINT LThumb
								{
									OFFSET 0.000000 0.000000 0.000000
									CHANNELS 3 Zrotation Yrotation Xrotation
									End Site
									{
										OFFSET 0.000000 0.000000 0.000000
									}
								}
							}
						}
					}
				}
				JOINT RightShoulder
				{
					OFFSET 0.000000 0.000000 0.000000
					CHANNELS 3 Zrotation Yrotation Xrotation
					JOINT RightArm
					{
						OFFSET -18.819600 8.244300 -2.427900
						CHANNELS 3 Zrotation Yrotation Xrotation
						JOINT RightForeArm
						{
							OFFSET -31.451400 -0.000000 -0.000000
							CHANNELS 3 Zrotation Yrotation Xrotation
							JOINT RightHand
							{
								OFFSET -20.665020 -0.000000 -0.000000
								CHANNELS 3 Zrotation Yrotation Xrotation
								JOINT RightFingerBase
								{
									OFFSET 0.000000 0.000000 0.000000
									CHANNELS 3 Zrotation Yrotation Xrotation
									JOINT RightHandIndex1
									{
										OFFSET -3.735180 -0.000000 -0.000000
										CHANNELS 3 Zrotation Yrotation Xrotation
										End Site
										{
											OFFSET 0.000000 0.000000 0.000000
										}
									}
								}
								JOINT RThumb
								{
									OFFSET 0.000000 0.000000 0.000000
									CHANNELS 3 Zrotation Yrotation Xrotation
									End Site
									{
										OFFSET 0.000000 0.000000 0.000000
									}
								}
							}
						}
					}
				}
			}
		}
	}
}
MOTION
Frames:	9
Frame Time:	0.0333333
-35.751672 106.732188 65.277354 -177.726249 22.442432 -175.566980 -4.247164 0.833742 2.623966 -13.059830 -4.167393 -12.678394 0.662381 9.177706 27.264971 1.742058 -6.820866 -5.651876 0.014500 -0.778100 -2.138400 1.860513 -0.666070 1.264175 21.303394 -9.542464 -20.390586 -4.150399 -12.730252 39.293706 -2.305399 7.922038 -5.973765 -1.073200 6.585500 -18.492900 -1.745462 0.992678 9.624101 1.752823 1.276249 0.236599 2.071969 0.614208 -4.978419 -10.399766 -7.589520 -11.427021 6.190285 -7.481768 24.182124 4.195700 -3.167200 16.146300 -6.572335 -0.837837 -1.703079 -81.768510 6.090946 9.376160 14.334215 -21.006958 -3.236889 -1.580964 -2.716914 9.624220 17.203188 24.576570 8.692200 -7.125000 0.000000 0.000000 -13.483200 58.192500 -4.403800 5.331824 1.492318 -1.206111 80.461748 -4.226250 0.355367 -18.370161 27.072756 -4.886491 0.577156 -0.111778 6.859213 -18.897623 7.036857 -2.488900 7.125000 0.000000 0.000000 5.342000 -22.509000 2.902200 
-35.060232 107.084580 66.335742 -178.407892 20.280593 -175.692707 -4.202440 0.826218 2.643932 -12.881589 -4.377621 -12.837570 0.404764 8.683925 25.829448 1.979704 -8.804337 -3.885555 0.023900 -0.998900 -2.745700 1.672017 -0.608706 1.122590 20.094603 -11.264985 -24.330012 -5.483186 -14.125454 44.550705 -2.791131 12.140953 -3.386500 -1.919300 8.696000 -24.848800 -2.785095 0.804101 10.313497 1.608967 0.894481 0.260856 2.551988 0.438405 -5.215299 -10.743551 -7.870743 -11.070398 6.799977 -7.895391 23.819914 4.501700 -3.313000 15.983400 -6.596736 -0.860993 -1.670569 -80.599630 5.419853 10.748442 14.341279 -21.054507 -3.264137 -1.452167 -2.929163 9.466002 15.462561 26.703858 8.340400 -7.125000 0.000000 0.000000 -16.999200 60.014400 -6.337600 5.323573 1.594914 -1.163197 81.503812 -3.602029 -0.658503 -18.090970 26.670910 -4.730251 0.589848 -0.139108 7.392136 -19.328077 7.242766 -2.631500 7.125000 0.000000 0.000000 5.013600 -22.249200 2.752300 
-34.509504 107.285946 67.172142 -178.622243 18.638335 -175.967798 -4.172135 0.886327 2.670331 -12.672649 -5.299271 -12.288680 0.169703 8.283428 24.670103 1.856151 -8.266513 -3.078970 0.040100 -1.293300 -3.556100 1.489101 -0.584010 1.013472 18.174181 -11.555451 -26.702377 -6.553060 -15.113226 48.604756 -3.024512 16.895096 -0.129314 -3.317600 11.192300 -32.931200 -2.730517 0.735948 10.921524 1.514851 0.842429 0.425592 2.439784 0.409884 -5.129400 -10.781938 -7.935344 -11.070318 6.675095 -7.979083 23.619575 4.437000 -3.379400 15.874400 -6.574707 -0.924717 -1.634662 -79.580949 4.740409 13.079527 14.642108 -21.491248 -3.432195 -1.394020 -2.926189 7.168718 16.050040 26.107041 8.516600 -7.125000 0.000000 0.000000 -15.846400 59.538800 -5.713600 5.296913 1.623172 -1.154458 82.066195 -3.645627 0.228538 -18.279084 26.914506 -4.833962 0.567208 -0.128727 7.531517 -18.826720 7.157174 -2.524200 7.125000 0.000000 0.000000 5.397900 -22.373600 2.949600 
-33.706464 107.493984 67.941216 -179.424801 17.297121 -176.436303 -4.186375 0.952299 2.752790 -12.766652 -5.750897 -11.564534 -0.128490 7.703446 23.024459 1.829578 -8.562935 -1.709147 0.036000 -1.224000 -3.365400 1.368223 -0.589940 0.926716 15.222073 -10.092534 -27.452509 -7.164525 -15.673107 50.761912 -3.019767 16.710505 -0.347983 -2.567500 9.959700 -28.846300 -3.532996 0.835633 11.508797 1.421054 0.865511 0.492776 2.777483 0.438374 -5.275555 -10.748996 -7.832517 -11.217693 6.161136 -7.691805 24.006480 4.243100 -3.298900 16.062100 -6.500314 -1.028176 -1.619346 -78.795186 4.170043 14.614002 15.291174 -22.411620 -3.771521 -1.364400 -2.896292 7.308599 16.044842 26.055356 8.476300 -7.125000 0.000000 0.000000 -15.834600 59.454000 -5.676900 5.263292 1.619611 -1.182912 82.195847 -4.176516 2.016324 -18.689073 27.441221 -5.054644 0.540310 -0.142542 8.655090 -18.542603 7.425613 -2.575500 7.125000 0.000000 0.000000 5.620200 -22.099000 3.107500 
-32.684472 107.842128 68.535612 -179.734889 15.346269 -176.676525 -4.195920 1.050084 2.858287 -12.176772 -6.094063 -10.839642 -0.429274 7.041502 21.132475 1.996172 -10.060507 -0.028101 0.018600 -0.880500 -2.420000 1.330858 -0.641722 0.884967 12.390957 -8.316953 -26.492751 -7.031903 -15.659730 50.306516 -2.490186 10.686272 -2.067357 -1.970800 8.804900 -25.187000 -3.793257 0.754930 11.666299 1.456066 0.739124 0.571265 3.098072 0.375411 -5.190205 -10.769014 -7.678860 -11.143434 5.684130 -7.337801 24.232683 4.076800 -3.201100 16.075200 -6.393784 -1.113687 -1.605712 -78.361921 3.665649 15.478301 16.202001 -23.658787 -4.248521 -1.440727 -2.772420 6.241829 18.033466 24.815452 9.184800 -7.125000 0.000000 0.000000 -12.684900 58.587000 -4.258100 5.226026 1.593536 -1.204135 82.092436 -4.758473 3.560438 -19.260609 28.171704 -5.365237 0.518608 -0.126562 9.593798 -18.229544 7.149473 -2.427100 7.125000 0.000000 0.000000 5.868900 -22.426400 3.202500 
-31.561182 108.091410 68.968062 -178.907465 13.065034 -176.852955 -4.154385 1.197160 2.934418 -10.477103 -7.116121 -10.059746 -0.595647 6.662539 20.012523 2.102370 -10.833260 1.473297 0.005400 -0.473400 -1.300900 1.379637 -0.730431 0.925342 10.572867 -6.215076 -23.902911 -6.151355 -14.999800 47.198752 -1.300374 3.581150 -3.228110 -1.500700 7.737700 -21.920300 -2.653801 0.512568 11.936600 1.665647 0.617408 0.635894 3.015933 0.299765 -5.188831 -10.460471 -7.522849 -11.275761 5.134610 -7.055055 24.468513 3.797800 -3.087000 16.139100 -6.263131 -1.197417 -1.616558 -78.209423 3.435775 15.993157 17.420007 -25.253029 -4.906271 -1.456569 -2.695590 4.863581 19.655116 23.844928 9.707700 -7.125000 0.000000 0.000000 -10.256900 57.892100 -3.259000 5.253912 1.560902 -1.195404 82.004059 -4.286032 1.915906 -18.617435 27.388047 -5.030838 0.511029 -0.196522 10.993377 -18.442498 8.057237 -2.785800 7.125000 0.000000 0.000000 5.700000 -21.403400 3.242600 
-30.294756 108.132654 69.264048 -178.699993 10.898602 -177.094365 -4.121295 1.294158 2.942902 -9.424104 -7.998909 -9.602666 -0.667506 6.498494 19.478427 2.225678 -11.533375 1.816474 0.034100 -1.192500 -3.278600 1.436457 -0.847823 1.033911 8.038631 -4.168834 -20.848930 -5.021830 -13.971610 42.871279 -0.301893 -0.906172 -2.704887 -0.811200 5.747700 -16.054100 -2.169935 0.341902 11.752647 1.801890 0.481611 0.670491 3.128589 0.225107 -5.038330 -10.451637 -7.439574 -11.306364 4.974225 -6.852640 24.577278 3.754100 -3.001800 16.161600 -6.139962 -1.207638 -1.633151 -78.224084 3.536056 16.480536 18.629798 -26.791524 -5.601591 -1.368220 -2.634327 2.352009 20.516942 22.351290 9.595900 -7.125000 0.000000 0.000000 -8.535400 56.448700 -2.408200 5.237254 1.530102 -1.196886 81.978242 -4.637154 0.683195 -18.621396 27.394097 -5.024810 0.544271 -0.164802 9.771887 -18.861476 7.552482 -2.670800 7.125000 0.000000 0.000000 5.380500 -21.938500 2.993500 
-28.836666 108.136296 69.440550 -178.894967 9.077529 -177.395756 -4.081932 1.374232 2.939828 -8.678767 -8.547477 -9.289283 -0.713919 6.387540 19.094964 2.351009 -12.398029 2.168785 0.071900 -1.729400 -4.758400 1.497884 -0.995049 1.191685 5.253651 -1.366984 -17.248551 -3.833821 -12.682480 37.916284 0.504953 -4.186607 -2.446203 -0.657800 5.187500 -14.444000 -2.196590 0.371586 11.464329 1.847090 0.517158 0.681479 3.295529 0.240306 -4.918700 -10.611994 -7.427757 -11.238207 5.104599 -6.755572 24.562421 3.873600 -2.949400 16.137400 -6.063478 -1.200871 -1.639341 -78.055067 3.445202 17.101109 19.463494 -27.821860 -6.096530 -1.383780 -2.640451 0.520215 21.924459 21.993512 10.170500 -7.125000 0.000000 0.000000 -6.761000 56.356400 -1.888800 5.223556 1.531628 -1.188513 81.914520 -5.035093 -0.688846 -18.452219 27.193684 -4.933766 0.569589 -0.161061 8.280260 -19.168489 7.777596 -2.801700 7.125000 0.000000 0.000000 5.139900 -21.677600 2.889200 
-27.222702 107.965860 69.558216 -178.421271 7.538522 -177.663031 -3.963168 1.462652 2.928088 -7.241725 -8.966136 -9.247559 -0.645394 6.509562 19.325502 2.562134 -13.620103 2.222832 0.132000 -2.341900 -6.451600 1.537962 -1.161682 1.383145 3.526248 1.247037 -13.649244 -2.766180 -11.287964 33.038892 1.010822 -6.085050 -1.274427 -0.424200 4.180300 -11.584300 -1.534144 0.388011 11.204796 1.960049 0.634076 0.654525 3.195114 0.297585 -4.898739 -10.496012 -7.442011 -11.261717 4.989960 -6.740137 24.640343 3.808600 -2.917200 16.173000 -5.990791 -1.195365 -1.652806 -77.848428 3.637556 17.736666 20.155601 -28.667448 -6.529661 -1.269626 -2.692391 -1.083660 21.649060 22.060184 10.052800 -7.125000 0.000000 0.000000 -7.131400 56.379200 -1.997000 5.238201 1.514355 -1.189123 81.710479 -5.332558 -1.906561 -17.953023 26.576766 -4.682956 0.575871 -0.159221 8.669370 -19.167133 7.394435 -2.664300 7.125000 0.000000 0.000000 5.137300 -22.088200 2.839600 
